<svg xmlns="http://www.w3.org/2000/svg" viewBox="0 0 64 64" fill="none">
  <rect width="64" height="64" fill="#2563eb"/>
  <g fill="#ffffff" stroke="#ffffff" stroke-linecap="round">
    <!-- Segel -->
    <rect x="24" y="14" width="16" height="14"/>
    <line x1="32" y1="10" x2="32" y2="36" stroke-width="2"/>
    <line x1="24" y1="12" x2="40" y2="12" stroke-width="2"/>
    <!-- Rumpf -->
    <path d="M12 36 Q10 30 16 30 L48 30 Q54 30 52 36 L48 42 L16 42 Z"/>
    <!-- Bug/Heck -->
    <path d="M12 36 Q6 34 8 28 Q10 30 12 32 Z"/>
    <path d="M52 36 Q58 34 56 28 Q54 30 52 32 Z"/>
    <!-- Ruder -->
    <line x1="20" y1="44" x2="16" y2="54" stroke-width="2"/>
    <line x1="28" y1="44" x2="24" y2="54" stroke-width="2"/>
    <line x1="36" y1="44" x2="32" y2="54" stroke-width="2"/>
    <line x1="44" y1="44" x2="40" y2="54" stroke-width="2"/>
  </g>
</svg>
