<svg xmlns="http://www.w3.org/2000/svg" viewBox="0 0 64 64" fill="none">
  <rect width="64" height="64" fill="#ffffff"/>
  <g fill="#2563eb">
    <!-- Mast + Rahe -->
    <rect x="31" y="12" width="2" height="20"/>
    <rect x="22" y="14" width="20" height="2"/>
    <!-- Segel -->
    <rect x="24" y="15" width="16" height="14"/>
    <!-- Rumpf (bootsförmig mit hochgezogenen Enden als Voluten) -->
    <path d="M10 32 L54 32 L50 42 L14 42 Z"/>
    <!-- Bug-Volute links (Spirale nach oben) -->
    <path d="M10 32 Q6 30 6 26 Q6 22 10 22 Q14 22 14 26 Q14 30 10 30 Q9 30 9 28 Q9 26 11 26 Q13 26 13 28 Q13 32 10 32 Z"/>
    <!-- Heck-Volute rechts -->
    <path d="M54 32 Q58 30 58 26 Q58 22 54 22 Q50 22 50 26 Q50 30 54 30 Q55 30 55 28 Q55 26 53 26 Q51 26 51 28 Q51 32 54 32 Z"/>
    <!-- Wellenlinie unter Rumpf -->
    <path d="M6 46 Q12 44 20 46 Q28 48 36 46 Q44 44 52 46 Q56 47 58 46 L58 48 Q56 49 52 48 Q44 46 36 48 Q28 50 20 48 Q12 46 6 48 Z"/>
    <!-- Ruder (schräg, mit Blättern) -->
    <path d="M18 44 L21 44 L15 54 L12 54 Z"/>
    <path d="M26 44 L29 44 L23 54 L20 54 Z"/>
    <path d="M34 44 L37 44 L31 54 L28 54 Z"/>
    <path d="M42 44 L45 44 L39 54 L36 54 Z"/>
  </g>
</svg>
